<?xml version="1.0" ?><!-- Uploaded to: SVG Repo, www.svgrepo.com, Transformed by: SVG Repo Mixer Tools -->
<svg fill="#000000" width="800px" height="800px" viewBox="0 0 64 64" data-name="Layer 1" id="Layer_1" xmlns="http://www.w3.org/2000/svg"><title/><path d="M32,57.14A25.14,25.14,0,1,1,57.14,32a24.91,24.91,0,0,1-1.89,9.58,2,2,0,1,1-3.7-1.53,20.86,20.86,0,0,0,1.59-8A21.13,21.13,0,1,0,43.7,49.61a2,2,0,0,1,2.21,3.33A25,25,0,0,1,32,57.14Z"/><path d="M32,41a9,9,0,1,1,9-9A9,9,0,0,1,32,41ZM32,27a5,5,0,1,0,5,5A5,5,0,0,0,32,27Z"/></svg>